<?xml version="1.0" encoding="utf-8"?>
<!-- Generator: Adobe Illustrator 21.1.0, SVG Export Plug-In . SVG Version: 6.00 Build 0)  -->
<svg version="1.1" id="레이어_1" xmlns="http://www.w3.org/2000/svg" xmlns:xlink="http://www.w3.org/1999/xlink" x="0px"
	 y="0px" viewBox="0 0 40 40" style="enable-background:new 0 0 40 40;" xml:space="preserve">
<style type="text/css">
	.st0{fill:#FAE100;}
	.st1{fill:#FAE000;}
	.st2{fill:#F9DF01;}
	.st3{fill:#F9DE01;}
	.st4{fill:#F8DD02;}
	.st5{fill:#F8DC02;}
	.st6{fill:#F7DC03;}
	.st7{fill:#F7DB03;}
	.st8{fill:#F6DA04;}
	.st9{fill:#F6D904;}
	.st10{fill:#F5D805;}
	.st11{fill:#F5D705;}
	.st12{fill:#CDAA14;}
	.st13{fill:#FFFFFF;}
</style>
<g>
	<path class="st0" d="M40,36.8c0,1.8-1.4,3.2-3.2,3.2H3.2C1.4,40,0,38.6,0,36.8V3.2C0,1.4,1.4,0,3.2,0h33.6C38.6,0,40,1.4,40,3.2
		V36.8z"/>
	<g>
		<path class="st0" d="M26.5,9.7h-13c-0.2,0-0.4,0.2-0.4,0.3v13c0,0.2,0.2,0.3,0.3,0.4l5.6,0c-0.6,2.6-2.2,5.1-4.4,6.7
			c-0.1,0.1-0.1,0.2-0.1,0.3c0,0.1,0,0.2,0.1,0.3l3.8,3.8c0.1,0.1,0.2,0.1,0.2,0.1c0.1,0,0.1,0,0.2-0.1c5-3.3,7.9-8.9,7.9-14.9v-9.5
			C26.9,9.9,26.7,9.7,26.5,9.7z"/>
		<path class="st1" d="M26.5,9.6h-13c-0.2,0-0.4,0.2-0.4,0.3v13c0,0.2,0.2,0.3,0.3,0.4l5.6,0c-0.6,2.6-2.2,5.1-4.4,6.7
			c-0.1,0.1-0.1,0.2-0.1,0.3c0,0.1,0,0.2,0.1,0.3l3.8,3.8c0.1,0.1,0.2,0.1,0.2,0.1c0.1,0,0.1,0,0.2-0.1c5-3.3,7.9-8.9,7.9-14.9V10
			C26.9,9.8,26.7,9.6,26.5,9.6z"/>
		<path class="st2" d="M26.5,9.5h-13c-0.2,0-0.4,0.2-0.4,0.3v13c0,0.2,0.2,0.3,0.3,0.4l5.6,0c-0.6,2.6-2.2,5.1-4.4,6.7
			c-0.1,0.1-0.1,0.2-0.1,0.3c0,0.1,0,0.2,0.1,0.3l3.8,3.8c0.1,0.1,0.2,0.1,0.2,0.1c0.1,0,0.1,0,0.2-0.1c5-3.3,7.9-8.9,7.9-14.9V9.9
			C26.9,9.7,26.7,9.5,26.5,9.5z"/>
		<path class="st3" d="M26.5,9.4h-13c-0.2,0-0.4,0.2-0.4,0.3v13c0,0.2,0.2,0.3,0.3,0.4l5.6,0c-0.6,2.6-2.2,5.1-4.4,6.7
			c-0.1,0.1-0.1,0.2-0.1,0.3c0,0.1,0,0.2,0.1,0.3l3.8,3.8c0.1,0.1,0.2,0.1,0.2,0.1c0.1,0,0.1,0,0.2-0.1c5-3.3,7.9-8.9,7.9-14.9V9.8
			C26.9,9.6,26.7,9.4,26.5,9.4z"/>
		<path class="st4" d="M26.5,9.3h-13c-0.2,0-0.4,0.2-0.4,0.3v13c0,0.2,0.2,0.3,0.3,0.4l5.6,0c-0.6,2.6-2.2,5.1-4.4,6.7
			c-0.1,0.1-0.1,0.2-0.1,0.3c0,0.1,0,0.2,0.1,0.3l3.8,3.8c0.1,0.1,0.2,0.1,0.2,0.1c0.1,0,0.1,0,0.2-0.1c5-3.3,7.9-8.9,7.9-14.9V9.7
			C26.9,9.5,26.7,9.3,26.5,9.3z"/>
		<path class="st5" d="M26.5,9.2h-13c-0.2,0-0.4,0.2-0.4,0.3v13c0,0.2,0.2,0.3,0.3,0.4l5.6,0c-0.6,2.6-2.2,5.1-4.4,6.7
			c-0.1,0.1-0.1,0.2-0.1,0.3c0,0.1,0,0.2,0.1,0.3l3.8,3.8c0.1,0.1,0.2,0.1,0.2,0.1c0.1,0,0.1,0,0.2-0.1c5-3.3,7.9-8.9,7.9-14.9V9.6
			C26.9,9.4,26.7,9.2,26.5,9.2z"/>
		<path class="st6" d="M26.5,9.1h-13c-0.2,0-0.4,0.2-0.4,0.3v13c0,0.2,0.2,0.3,0.3,0.4l5.6,0c-0.6,2.6-2.2,5.1-4.4,6.7
			c-0.1,0.1-0.1,0.2-0.1,0.3c0,0.1,0,0.2,0.1,0.3l3.8,3.8c0.1,0.1,0.2,0.1,0.2,0.1c0.1,0,0.1,0,0.2-0.1c5-3.3,7.9-8.9,7.9-14.9V9.5
			C26.9,9.3,26.7,9.1,26.5,9.1z"/>
		<path class="st7" d="M26.5,9h-13c-0.2,0-0.4,0.2-0.4,0.3v13c0,0.2,0.2,0.3,0.3,0.4l5.6,0c-0.6,2.6-2.2,5.1-4.4,6.7
			c-0.1,0.1-0.1,0.2-0.1,0.3c0,0.1,0,0.2,0.1,0.3l3.8,3.8c0.1,0.1,0.2,0.1,0.2,0.1c0.1,0,0.1,0,0.2-0.1c5-3.3,7.9-8.9,7.9-14.9V9.4
			C26.9,9.2,26.7,9,26.5,9z"/>
		<path class="st8" d="M26.5,8.9h-13c-0.2,0-0.4,0.2-0.4,0.3v13c0,0.2,0.2,0.3,0.3,0.4l5.6,0c-0.6,2.6-2.2,5.1-4.4,6.7
			c-0.1,0.1-0.1,0.2-0.1,0.3c0,0.1,0,0.2,0.1,0.3l3.8,3.8c0.1,0.1,0.2,0.1,0.2,0.1c0.1,0,0.1,0,0.2-0.1c5-3.3,7.9-8.9,7.9-14.9V9.3
			C26.9,9.1,26.7,8.9,26.5,8.9z"/>
		<path class="st9" d="M26.5,8.8h-13c-0.2,0-0.4,0.2-0.4,0.3v13c0,0.2,0.2,0.3,0.3,0.4l5.6,0c-0.6,2.6-2.2,5.1-4.4,6.7
			c-0.1,0.1-0.1,0.2-0.1,0.3c0,0.1,0,0.2,0.1,0.3l3.8,3.8c0.1,0.1,0.2,0.1,0.2,0.1c0.1,0,0.1,0,0.2-0.1c5-3.3,7.9-8.9,7.9-14.9V9.2
			C26.9,9,26.7,8.8,26.5,8.8z"/>
		<path class="st10" d="M26.5,8.7h-13c-0.2,0-0.4,0.2-0.4,0.3v13c0,0.2,0.2,0.3,0.3,0.4l5.6,0c-0.6,2.6-2.2,5.1-4.4,6.7
			c-0.1,0.1-0.1,0.2-0.1,0.3c0,0.1,0,0.2,0.1,0.3l3.8,3.8c0.1,0.1,0.2,0.1,0.2,0.1c0.1,0,0.1,0,0.2-0.1c5-3.3,7.9-8.9,7.9-14.9V9.1
			C26.9,8.9,26.7,8.7,26.5,8.7z"/>
		<path class="st11" d="M26.5,8.6h-13c-0.2,0-0.4,0.2-0.4,0.3v13c0,0.2,0.2,0.3,0.3,0.4l5.6,0c-0.6,2.6-2.2,5.1-4.4,6.7
			c-0.1,0.1-0.1,0.2-0.1,0.3c0,0.1,0,0.2,0.1,0.3l3.8,3.8c0.1,0.1,0.2,0.1,0.2,0.1c0.1,0,0.1,0,0.2-0.1c5-3.3,7.9-8.9,7.9-14.9V8.9
			C26.9,8.8,26.7,8.6,26.5,8.6z"/>
	</g>
	<path class="st12" d="M26.5,8.8h-13c-0.1,0-0.1,0.1-0.1,0.1v13c0,0.1,0.1,0.2,0.1,0.2l5.8,0c-0.5,2.8-2.2,5.4-4.5,7
		c0,0-0.1,0.1-0.1,0.1c0,0,0,0.1,0,0.1l3.8,3.8c0,0,0.1,0,0.1,0c0,0,0.1,0,0.1,0c4.9-3.3,7.9-8.8,7.9-14.7V8.9
		C26.6,8.9,26.6,8.8,26.5,8.8z"/>
	<path class="st13" d="M26.5,18.4L26.5,18.4l0-9.5h-13v13l6,0c-0.6,3.3-2.6,5.9-4.6,7.3l3.8,3.8C23.4,29.9,26.5,24.5,26.5,18.4z"/>
</g>
<g>
</g>
<g>
</g>
<g>
</g>
<g>
</g>
<g>
</g>
<g>
</g>
<g>
</g>
<g>
</g>
<g>
</g>
<g>
</g>
<g>
</g>
<g>
</g>
<g>
</g>
<g>
</g>
<g>
</g>
</svg>
