<?xml version="1.0" encoding="utf-8"?>
<!-- Generator: Adobe Illustrator 21.1.0, SVG Export Plug-In . SVG Version: 6.00 Build 0)  -->
<svg version="1.1" id="레이어_1" xmlns="http://www.w3.org/2000/svg" xmlns:xlink="http://www.w3.org/1999/xlink" x="0px"
	 y="0px" viewBox="0 0 40 40" style="enable-background:new 0 0 40 40;" xml:space="preserve">
<style type="text/css">
	.st0{fill:#21C531;}
	.st1{fill:#FFFFFF;}
</style>
<g>
	<g>
		<path class="st0" d="M31.7,0H8.3C3.7,0,0,3.7,0,8.3v23.4C0,36.3,3.7,40,8.3,40h23.4c4.6,0,8.3-3.7,8.3-8.3V8.3
			C40,3.7,36.3,0,31.7,0z"/>
		<g>
			<path class="st1" d="M20,11.6c-1,0-1.9,0.1-2.8,0.4V9.8c0-2.4-1.9-4.3-4.3-4.3c-2.4,0-4.3,1.9-4.3,4.3V23
				c0,6.3,5.1,11.4,11.4,11.4c6.3,0,11.4-5.1,11.4-11.4C31.4,16.7,26.3,11.6,20,11.6z M20,32.8c-5.4,0-9.7-4.4-9.7-9.7V9.8
				c0-1.4,1.2-2.6,2.6-2.6c1.4,0,2.6,1.2,2.6,2.6V23c0,2.5,2,4.6,4.6,4.6s4.6-2,4.6-4.6s-2-4.6-4.6-4.6c-1.1,0-2.1,0.4-2.8,1v-2
				C18,17,19,16.7,20,16.7c3.5,0,6.3,2.8,6.3,6.3c0,3.5-2.8,6.3-6.3,6.3c-3.5,0-6.3-2.8-6.3-6.3V9.8c0-0.5-0.4-0.9-0.9-0.9l0,0
				C12.4,9,12,9.4,12,9.8V23c0,4.4,3.6,8,8,8s8-3.6,8-8c0-4.4-3.6-8-8-8c-1,0-2,0.2-2.8,0.5v-1.8c0.9-0.3,1.9-0.4,2.8-0.4
				c5.4,0,9.7,4.4,9.7,9.7C29.7,28.4,25.4,32.8,20,32.8z M17.2,23c0-1.6,1.3-2.8,2.8-2.8s2.8,1.3,2.8,2.8c0,1.6-1.3,2.8-2.8,2.8
				S17.2,24.6,17.2,23z"/>
		</g>
	</g>
</g>
<g>
</g>
<g>
</g>
<g>
</g>
<g>
</g>
<g>
</g>
<g>
</g>
<g>
</g>
<g>
</g>
<g>
</g>
<g>
</g>
<g>
</g>
<g>
</g>
<g>
</g>
<g>
</g>
<g>
</g>
</svg>
